<svg width="384" height="94" viewBox="0 0 384 94" fill="none" xmlns="http://www.w3.org/2000/svg">
<path d="M329.466 3.59999C328.266 7.86666 328.133 7.86666 324.533 5.99999C321.333 4.26666 321.2 5.73332 324.4 8.13332C326.533 9.86666 326.533 10.1333 324.4 11.8667C321.2 14.2667 321.333 15.7333 324.533 14C328 12.1333 328.266 12.2667 329.333 15.6L330.4 18.6667L330.933 15.6C331.333 13.4667 332.133 12.6667 333.466 13.2C339.2 15.6 339.866 15.4667 336.8 12.8L333.733 9.99999L336.8 7.19999C340 4.39999 339.333 4.39999 333.066 6.93332C332.133 7.33332 331.333 5.99999 331.066 3.73332L330.533 -1.11461e-05L329.466 3.59999Z" fill="#8C8C8C"/>
<path d="M8.4 10C2.4 14.5333 0.133333 24.2667 0 44C0 64.9333 1.73333 72.4 8.26667 78C12 81.3333 13.8667 82 19.3333 82H26V60.6667V39.3333H18.6667H11.3333V44C11.3333 47.7333 11.8667 48.6667 14 48.6667C16.5333 48.6667 16.6667 49.6 16.6667 60.8C16.6667 71.4667 16.4 72.8 14.6667 71.3333C11.3333 68.5333 10 60.6667 10.1333 44C10.1333 20.9333 13.2 14.2667 22 17.6L26.1333 19.2L25.7333 13.6L25.3333 8L18.5333 7.6C13.3333 7.33333 11.0667 7.86666 8.4 10Z" fill="#8C8C8C"/>
<path d="M88.667 14C88.667 20.2667 88.4003 20.6667 85.3337 20.6667C78.8003 20.6667 77.3337 25.6 76.9337 49.3333C76.4003 73.8667 77.867 81.0667 83.2003 81.7333C85.2003 82 87.2003 81.3333 88.1337 80.1333C89.467 78.2667 89.867 78.1333 91.3337 80C92.267 81.0667 93.7337 82 94.667 82C96.9337 82 99.6003 72.6667 97.867 70.5333C97.067 69.4667 96.667 57.6 96.9337 38.1333L97.3337 7.33333H93.067C88.667 7.33333 88.667 7.33333 88.667 14ZM88.667 51.3333C88.667 70.6667 87.7337 76.4 85.467 70.5333C84.4003 67.7333 84.4003 39.4667 85.467 34.1333C87.467 24.5333 88.667 31.3333 88.667 51.3333Z" fill="#8C8C8C"/>
<path d="M115.333 44.6667V82H120.666H126V66C126 50.9333 126.133 50 128.666 50C131.2 50 131.333 50.9333 131.333 66V82H136H140.666V44.6667V7.33333H136H131.333V24C131.333 39.7333 131.2 40.6667 128.666 40.6667C126.133 40.6667 126 39.7333 126 24V7.33333H120.666H115.333V44.6667Z" fill="#8C8C8C"/>
<path d="M231.733 44.6667L231.867 82H236.267H240.667V66.4C240.667 53.8667 241.067 51.0667 242.4 52.4C243.467 53.6 244 58.6667 244 68.1333V82H248.533H252.933L252.533 66.8C252.133 54.1333 251.6 51.0667 249.467 48.8C248 47.2 247.6 46 248.267 46C250.667 46 252.667 38.1333 252.667 29.0667V20.5333L248.533 20.9333L244.4 21.3333L244.267 30.9333C244.133 36.5333 243.333 41.2 242.4 42.2667C241.067 43.6 240.667 40.2667 240.667 25.6V7.33333H236.133H231.467L231.733 44.6667Z" fill="#8C8C8C"/>
<path d="M32.933 24C29.1996 28.8 28.2663 36.2667 28.933 56.6667C29.333 71.6 29.8663 74.4 32.133 77.6C34.2663 80.4 36.133 81.3333 39.4663 81.3333C43.4663 81.3333 44.3996 80.6667 46.6663 76C48.933 71.3333 49.333 68 49.333 50.6667C49.333 32.9333 49.0663 30.1333 46.533 26C42.933 19.7333 36.933 18.9333 32.933 24ZM40.6663 51.3333C40.6663 70.6667 39.733 76.4 37.4663 70.5333C36.3996 67.8667 36.3996 34.8 37.4663 32.1333C39.733 26.2667 40.6663 32 40.6663 51.3333Z" fill="#8C8C8C"/>
<path d="M57.6003 23.0667C53.7337 27.2 52.667 33.7333 52.667 51.3333C52.667 75.4667 55.3337 82.5333 63.867 81.7333C67.2003 81.4667 68.5337 80.2667 70.5337 76C72.8003 71.4667 73.2003 67.8667 73.2003 51.3333C73.2003 34.8 72.8003 31.2 70.5337 26.6667C68.5337 22.4 67.2003 21.2 63.867 20.9333C61.2003 20.6667 59.067 21.3333 57.6003 23.0667ZM64.667 51.4667C64.667 68 64.267 72.8 63.067 72.4C61.7337 72 61.2003 66.5333 60.9337 52.6667C60.5337 33.0667 60.9337 30 63.3337 30C64.1337 30 64.667 37.6 64.667 51.4667Z" fill="#8C8C8C"/>
<path d="M148.266 23.0667C145.2 26.5333 143.333 37.4667 143.333 52.5333C143.466 73.4667 146.533 82 154 82C161.466 82 164.666 72.6667 164.666 51.3333C164.666 30 161.466 20.6667 154 20.6667C152 20.6667 149.466 21.7333 148.266 23.0667ZM156.133 38.9333C157.066 47.8667 156.133 70.9333 154.8 72.4C153.333 73.7333 152.666 71.7333 151.866 62.4C150.933 51.8667 152.266 30 154 30C154.666 30 155.6 34 156.133 38.9333Z" fill="#8C8C8C"/>
<path d="M167.333 49.7333C167.333 70.5333 167.733 79.2 168.933 80.4C171.333 82.8 177.6 82.4 179.333 79.6C180.666 77.4667 180.666 77.4667 182 79.6C182.8 80.9333 184.266 82 185.066 82C188.533 82 189.466 74.8 188.533 54C188 42.6667 187.866 30.5333 188.266 26.9333L189.066 20.6667H184.133H179.333V46.6667C179.333 68.9333 179.066 72.6667 177.333 72.6667C175.6 72.6667 175.333 68.9333 175.333 46.6667V20.6667H171.333H167.333V49.7333Z" fill="#8C8C8C"/>
<path d="M193.466 23.6C190.4 28 190.8 39.7333 194.666 52.8C199.466 69.3333 199.2 73.6 193.066 72.8C192 72.6667 191.333 74.2667 191.333 77.3333C191.333 81.8667 191.466 82 196.4 82C207.466 82 209.066 73.6 202.666 49.2C198.666 33.8667 198.8 30 203.2 30C206.4 30 208 22.5333 204.933 21.3333C200.666 19.7333 195.466 20.8 193.466 23.6Z" fill="#8C8C8C"/>
<path d="M212.8 23.6C208.934 27.6 208 33.6 208.267 50.6667C208.534 75.6 211.867 82.4 223.067 81.7333C229.2 81.3333 229.334 81.2 229.734 76.6667L230.134 71.8667L224.934 72.4C220 72.9333 219.6 72.6667 218.134 68.5333C215.734 61.7333 216.267 59.7333 220.667 58.1333C223.467 57.2 225.467 55.2 226.667 52.1333C229.067 46.5333 229.334 33.4667 227.2 27.4667C224.667 20.4 217.467 18.4 212.8 23.6ZM220.667 37.8667C220.667 46.2667 219.867 50 217.867 50C216.534 50 216.267 32.2667 217.6 30.9333C219.734 28.6667 220.667 30.5333 220.667 37.8667Z" fill="#8C8C8C"/>
<path d="M260.4 22C256.666 24.2667 255.066 32.2667 255.066 49.0667C255.066 75.3333 258.266 82.5333 269.733 81.7333C275.866 81.3333 276 81.2 276.4 76.5333C276.8 72 276.666 71.8667 272.266 72.4C267.066 72.9333 264.8 70.9333 263.733 64.2667C263.066 60.1333 263.333 59.6 267.2 58.2667C272.666 56.2667 275.333 50 275.333 38.6667C275.333 24 269.066 17.0667 260.4 22ZM267.333 37.8667C267.333 46.2667 266.533 50 264.533 50C263.2 50 262.933 32.2667 264.266 30.9333C266.4 28.6667 267.333 30.5333 267.333 37.8667Z" fill="#8C8C8C"/>
<path d="M283.6 22.9333C276 29.2 276 69.0667 283.466 78.6667C285.733 81.4667 287.333 82 292.8 82C298.8 82 299.333 81.7333 299.333 78.8C299.333 77.0667 299.733 74.6667 300.133 73.4667C300.8 71.8667 300 71.6 295.866 72.2667C290 73.2 287.333 70.6667 287.333 64.1333C287.333 60.9333 288.266 59.4667 291.333 57.7333C297.066 54.4 299.733 47.3333 299.066 37.0667C298.266 23.7333 290.8 16.9333 283.6 22.9333ZM291.066 38.1333C291.333 42.9333 290.8 46.2667 289.466 48C288.4 49.4667 287.2 50.4 286.933 50C286.533 49.6 286.533 44.9333 286.933 39.6C287.866 28.1333 290.4 27.2 291.066 38.1333Z" fill="#8C8C8C"/>
<path d="M302.4 24.2667C301.867 26.4 301.467 42.5333 301.733 60.2667L302.133 92.6667H306.8C311.2 92.6667 311.333 92.5333 311.333 87.3333C311.333 83.0667 311.867 82 313.733 82C320.8 82 323.867 69.8667 323.067 46C322.4 28.4 320.667 21.7333 316.267 20.9333C314.933 20.6667 312.667 21.4667 311.333 22.6667C309.2 24.5333 308.933 24.5333 308.267 22.6667C306.933 19.4667 303.733 20.4 302.4 24.2667ZM313.733 50.9333C313.467 63.3333 312.8 72 312 72.2667C311.067 72.5333 310.533 42 311.333 30.2667C311.333 30.1333 312 30 312.667 30C313.6 30 314 37.3333 313.733 50.9333Z" fill="#8C8C8C"/>
<path d="M326 51.3333V82H330H334V51.3333V20.6667H330H326V51.3333Z" fill="#8C8C8C"/>
<path d="M338.267 23.6C337.734 25.3333 337.467 39.0667 337.734 54.2667L338.134 82H342.134H346V56C346 33.7333 346.267 30 348 30C349.734 30 350 33.7333 350 56V82H354.534H358.934L359.067 54.4C359.334 31.7333 358.934 26.2667 357.334 23.7333C354.934 20.2667 349.867 19.6 347.334 22.6667C345.734 24.5333 345.334 24.5333 343.334 22.6667C340.4 20 339.467 20.1333 338.267 23.6Z" fill="#8C8C8C"/>
<path d="M370 23.0667C366.533 24.8 364.933 26.6667 363.733 30.6667C361.866 37.3333 361.466 68.9333 363.333 75.6C364.933 80.9333 368.8 83.3333 372 80.6667C373.6 79.3333 374 79.4667 374 81.0667C374 84.2667 369.2 86.4 366.133 84.6667C362.4 82.8 362.133 82.9333 360.533 86.9333C358.8 91.7333 361.733 94 369.6 94C374 94 376.266 93.2 378.666 90.6667L382 87.4667V58.2667C382 42.1333 382.4 27.0667 382.8 24.8C383.6 20.8 383.466 20.6667 379.2 20.6667C376.666 20.6667 372.533 21.7333 370 23.0667ZM374 51.3333C374 70.6667 373.066 76.4 370.8 70.5333C369.733 67.7333 369.733 39.4667 370.8 34.1333C372.8 24.5333 374 31.3333 374 51.3333Z" fill="#8C8C8C"/>
</svg>
