<svg width="669" height="131" viewBox="0 0 669 131" fill="none" xmlns="http://www.w3.org/2000/svg">
<path d="M0.333496 64.3332V128.333H65.0002H129.667V64.3332V0.333245H65.0002H0.333496V64.3332ZM33.6668 56.9999V86.9999H43.0002H52.3335V93.6666V100.333H36.3335H20.3335V63.6666V26.9999H27.0002H33.6668V56.9999ZM58.2002 33.6666L65.1335 40.1999L71.6668 33.6666C77.6668 27.5332 78.7335 26.9999 84.6002 26.9999H91.0002V63.6666V100.333H84.3335H77.6668V76.0666V51.7999L71.0002 58.3332L64.3335 64.8666L58.3335 58.9999L52.3335 53.1332V68.0666V82.9999H45.0002H37.6668V55.9332C37.6668 40.9999 38.0668 28.3332 38.6002 27.9332C39.0002 27.3999 42.0668 26.9999 45.2668 26.9999C50.4668 26.9999 51.9335 27.7999 58.2002 33.6666ZM109.4 63.9332L109.667 100.333H102.334H95.0002V64.5999C95.0002 44.8666 95.4002 28.3332 95.9335 27.7999C96.4668 27.2666 99.6668 26.9999 103 27.2666L109 27.6666L109.4 63.9332Z" fill="#8C8C8C"/>
<path d="M157 1.93333C156.6 3 156.467 15.6667 156.6 30.3333L157 57H173.667H190.334V53V49L178.334 48.3333L166.334 47.6667L165.667 24.3333L165 0.999997L161.267 0.599997C159.134 0.33333 157.4 0.866664 157 1.93333Z" fill="#8C8C8C"/>
<path d="M197.667 2.86669C195.667 6.86669 195.933 52.6 198.067 55.4C199.533 57.4 201.8 57.6667 215.667 57.4L231.667 57V53V49L219.667 48.3334L207.667 47.6667L207.267 40.7334L206.867 33.8L217.933 33.4C228.467 33 229 32.8667 229.4 29.8C230.067 25.4 227.8 24.3334 216.733 24.3334H207V17.6667V11H217.533C225.4 11 228.733 10.4667 230.2 8.86669C232.733 6.46669 232.733 6.20003 231 2.86669C229.667 0.600028 228.067 0.333361 214.333 0.333361C200.6 0.333361 199 0.600028 197.667 2.86669Z" fill="#8C8C8C"/>
<path d="M241.267 1.2667C240.733 1.6667 240.333 14.3334 240.333 29.1334C240.333 53.8 240.6 56.3334 242.733 57.5334C244.2 58.3334 245.933 58.3334 247.4 57.5334C249.4 56.3334 249.667 53.9334 249.8 39.9334V23.6667L256.067 35.9334C261.4 46.7334 262.733 48.3334 265.667 48.3334C268.6 48.3334 269.933 46.7334 275.267 35.9334L281.533 23.6667V39.9334C281.667 55 281.933 56.3334 284.467 57.6667C286.467 58.8667 287.667 58.7334 289.133 57.5334C290.733 56.2 291 51.2667 290.733 28.4667L290.333 1.00003H286.333C282.6 1.00003 281.933 1.93337 274.067 17.5334L265.8 33.9334L257.4 17.1334C249.933 2.0667 248.733 0.333367 245.533 0.333367C243.667 0.333367 241.667 0.733367 241.267 1.2667Z" fill="#8C8C8C"/>
<path d="M307.267 4.86662L302.333 9.39995V28.8666V48.1999L306.333 52.3333C313.267 59.5333 326.733 60.7333 334.333 54.7333C340.467 49.9333 341.667 45.7999 341.667 28.5999C341.667 14.3333 341.4 12.3333 338.6 8.19995C334.467 2.06661 330.467 0.333281 320.6 0.333281C313 0.333281 311.933 0.733281 307.267 4.86662ZM328.6 11.9333C330.6 13.7999 331 16.1999 331 28.9999C331 41.5333 330.6 44.1999 328.733 45.9333C325 49.1333 322.067 49.6666 317.667 48.1999C314.6 46.9999 313.4 45.5333 312.2 41.2666C310.067 33.1333 311.267 15.6666 314.333 12.3333C317.267 8.99995 325.133 8.73328 328.6 11.9333Z" fill="#8C8C8C"/>
<path d="M353.267 1.26658C352.733 1.66658 352.333 14.1999 352.333 28.9999C352.333 50.8666 352.733 56.3333 354.2 57.5333C355.667 58.7333 356.867 58.8666 358.867 57.7999C361.4 56.4666 361.667 54.8666 361.933 39.6666L362.333 22.9999L372.6 40.1999C378.333 49.6666 383.933 57.6666 385.133 58.1999C386.2 58.5999 388.333 58.3333 389.8 57.6666C392.2 56.3333 392.333 54.7333 392.067 28.5999L391.667 0.999916H387.667H383.667L383 18.3332L382.333 35.6666L373.133 20.3332C368.067 11.9332 363 3.93325 361.933 2.59992C359.933 0.333249 354.867 -0.466751 353.267 1.26658Z" fill="#8C8C8C"/>
<path d="M404.6 1.93329C402.334 4.19996 402.334 53.8 404.6 56.0666C405.667 57.1333 410.6 57.6666 418.334 57.6666C427.934 57.6666 431.267 57.1333 434.6 55C442.6 50.2 443.667 47 443.667 28.8666C443.667 10.4666 442.334 7.13329 433.534 2.73329C428.067 -0.200044 407.134 -0.600044 404.6 1.93329ZM430.467 12.8666C432.734 14.6 433 16.4666 433 28.8666C433 45.6666 432.067 47.1333 421.134 48.0666L413.667 48.6V29.8V11H420.734C424.734 11 429 11.8 430.467 12.8666Z" fill="#8C8C8C"/>
<path d="M455.267 1.93329C453 4.19996 453 53.8 455.267 56.0666C456.334 57.1333 461.934 57.6666 471.8 57.6666C487.8 57.6666 490.734 56.4666 489 51C488.2 48.6 487.134 48.3333 476.2 48.3333H464.334V41V33.6666H474.2C485.267 33.6666 488.334 31.9333 485.667 27.1333C484.467 24.7333 483 24.3333 474.334 24.3333H464.334V17.6666V11H473.8C479 11 484.334 10.3333 485.8 9.66662C488.6 8.06662 489.134 4.33329 486.734 1.93329C484.6 -0.200044 457.4 -0.200044 455.267 1.93329Z" fill="#8C8C8C"/>
<path d="M157.267 71.7999C156.733 72.3333 156.333 84.8666 156.333 99.6666C156.333 122.733 156.6 126.867 158.467 128.467C159.933 129.667 161.133 129.8 162.733 128.733C164.733 127.533 165 124.067 165 99.5333V71.6666L161.667 71.2666C159.8 70.9999 157.8 71.2666 157.267 71.7999Z" fill="#8C8C8C"/>
<path d="M178.6 71.9333C178.067 72.3333 177.667 85.2666 177.667 100.467C177.667 124.333 177.934 128.2 179.8 128.867C180.867 129.267 183 129 184.334 128.333C186.6 127.133 187 125 187.267 110.333L187.667 93.6666L197.934 110.867C203.667 120.333 209.267 128.333 210.467 128.867C211.534 129.267 213.667 129 215.134 128.333C217.534 127 217.667 125.4 217.4 99.2666L217 71.6666H213H209L208.334 89L207.667 106.333L198.467 91C193.4 82.6 188.334 74.6 187.267 73.2666C185.267 71 180.2 70.2 178.6 71.9333Z" fill="#8C8C8C"/>
<path d="M229.933 72.6C228.733 73.8 228.333 81.6667 228.333 99.8C228.333 121.4 228.733 125.8 230.467 127.533C232.867 130.067 233.133 130.067 236.467 128.333C238.6 127.133 239 125.4 239 115.667V104.467L248.733 104.067L258.333 103.667V99.6667V95.6667L248.733 95.2667L239 94.8667V88.3333V81.6667H248.467C253.667 81.6667 259 81 260.467 80.3333C263.267 78.7333 263.8 75 261.4 72.6C259.267 70.4667 232.067 70.4667 229.933 72.6Z" fill="#8C8C8C"/>
<path d="M276.2 73.2666C269.134 77.6666 267.667 82.1999 267.667 99.6666C267.667 117.8 269.267 122.6 276.734 126.6C283 129.933 295.134 129.667 299.934 126.2C306.6 121.267 308.334 115.933 308.334 99.9333C308.334 83.2666 306.6 77.6666 300.067 73.6666C294.467 70.3333 281.267 70.0666 276.2 73.2666ZM295.534 83.2666C297.134 85.5333 297.667 89.6666 297.667 99.7999C297.667 116.2 295.934 119.667 287.667 119.4C279.934 119.133 278.467 116.733 277.8 102.867C277.134 84.5999 279.134 80.3333 288.334 80.3333C292.2 80.3333 294.067 81.1333 295.534 83.2666Z" fill="#8C8C8C"/>
<path d="M319 73.5333C318.2 75.1333 317.667 86.3333 317.667 100.867C317.667 121.4 318.067 125.8 319.8 127.533C322.2 130.067 322.467 130.067 325.8 128.333C327.934 127.133 328.334 125.4 328.334 116.333V105.667H332.334C335.934 105.667 336.867 106.6 341.267 115.133C348.334 128.333 349.934 130.2 353.4 129.133C358.2 127.533 358.2 123.667 353 113.8L348.2 104.733L352.2 100.6C355.934 97 356.334 95.6667 356.334 88.7333C356.334 75.1333 350.6 71 331.8 71C321.934 71 320.2 71.4 319 73.5333ZM344.334 82.3333C345.134 82.7333 345.667 85.5333 345.667 88.3333C345.667 94.6 343.267 96.3333 334.467 96.3333H328.334V89.2667C328.334 85.2667 328.734 81.6667 329.4 81.1333C330.334 80.0667 342.2 81 344.334 82.3333Z" fill="#8C8C8C"/>
<path d="M366.6 71.9333C366.067 72.3333 365.667 85 365.667 99.8C365.667 125.8 365.8 127 368.467 128.333C373.8 131.267 375 128.2 375.134 110.467V94.3333L381.4 106.6C390.2 124.2 392.867 124.067 401.4 105.667L406.734 94.3333L406.867 110.6C407 125.267 407.267 127 409.534 128.333C411 129 413.134 129.267 414.2 128.867C416.067 128.067 416.334 124.6 416.067 99.8L415.667 71.6667L412.067 71.2667C408.6 70.8667 407.934 71.8 399.934 87.9333L391.267 105L382.867 87.9333C375.267 72.7333 374.067 71 370.867 71C369 71 367 71.4 366.6 71.9333Z" fill="#8C8C8C"/>
<path d="M438.333 74.0666C435.4 78.4666 424.333 113.133 423.4 120.333C422.067 131.533 430.067 133.133 433.133 122.2L434.6 117L443.933 116.6L453.4 116.2L455.133 121.8C457.4 128.6 460.467 131 463.667 128.333C465.4 126.867 465.8 125 465.267 120.333C464.333 113.133 453.267 78.4666 450.333 74.0666C447.533 69.9333 441.133 69.9333 438.333 74.0666ZM447.533 95.9332C448.867 100.2 450.333 104.467 450.6 105.267C451.133 106.6 449.4 107 444.333 107C437.8 107 437.533 106.867 438.333 103.933C440.733 96.1999 443.667 88.3333 444.467 88.3333C444.867 88.3333 446.2 91.7999 447.533 95.9332Z" fill="#8C8C8C"/>
<path d="M463.267 72.6C461.267 74.6 461.267 78.0667 463.267 80.0667C464.2 81 468.067 81.6667 471.933 81.6667H479V104.333C479 125.267 479.133 127 481.533 128.333C484.867 130.067 485.133 130.067 487.533 127.533C489.267 125.8 489.667 121.667 489.667 103.667V81.8L497.133 81.4C505.667 81 508.867 78.3333 506.2 74.0667C504.867 71.9333 502.067 71.6667 484.867 71.2667C470.467 71 464.467 71.4 463.267 72.6Z" fill="#8C8C8C"/>
<path d="M513.133 72.9999C512.733 74.1999 512.333 86.4666 512.333 100.333C512.333 121.4 512.733 125.8 514.467 127.533C517 130.067 517.8 130.2 520.733 127.933C522.867 126.467 523 123.533 522.733 98.9999L522.333 71.6666L518.2 71.2666C515.267 70.9999 513.8 71.5333 513.133 72.9999Z" fill="#8C8C8C"/>
<path d="M541.534 73.2666C535.267 77.1333 533.134 82.4666 532.6 96.3333C531.667 117.133 535.4 125.267 547.134 128.333C551.4 129.533 554.734 129.533 559 128.6C563.934 127.4 565.4 127.533 567.267 129.267C570.067 131.8 575.534 131 576.067 127.933C576.334 126.467 575.4 124.067 573.934 122.6C572.067 120.467 571.667 118.867 572.334 117C573 115.533 573.534 107.8 573.534 99.9333C573.667 83.2666 571.934 77.6666 565.4 73.6666C559.8 70.3333 546.6 70.0666 541.534 73.2666ZM560.867 83.2666C562.467 85.5333 563 89.6666 563 99V111.8L559.4 111.667C556.2 111.667 555.667 112.2 555.667 115.667C555.534 117.933 554.867 119.667 553.934 119.533C553 119.4 551.134 119.267 549.667 119.267C545.267 118.867 543 112.333 543 99.6666C543 83.9333 545 80.3333 553.934 80.3333C557.534 80.3333 559.4 81.1333 560.867 83.2666Z" fill="#8C8C8C"/>
<path d="M583.933 71.8C583.4 72.3333 583 82.6 583 94.6C583 119 583.933 122.6 591.4 126.6C596.6 129.267 607.4 129.533 613.4 127.133C615.667 126.2 618.867 123.4 620.333 121C622.867 117 623 114.733 622.733 94.0666C622.333 71.8 622.333 71.6666 619.267 71.2666C613 70.3333 612.333 72.4666 612.333 94.2C612.333 105.267 611.8 115 611.267 115.8C607.8 121 597.667 121.133 594.6 115.933C593.667 114.067 592.733 105.133 592.333 92.3333L591.667 71.6666L588.333 71.2666C586.467 71 584.467 71.2666 583.933 71.8Z" fill="#8C8C8C"/>
<path d="M635.267 72.0666C634.067 73 633.667 79.5333 633.933 100.467L634.333 127.667H651H667.667V123.667V119.667L655.667 119L643.667 118.333V111.667V105L654.333 104.333L665 103.667V99.6666V95.6666L654.333 95L643.667 94.3333L643.267 87.9333L642.867 81.6666H653.533C661.4 81.6666 664.733 81.1333 666.2 79.5333C668.733 77 668.867 74.7333 666.733 72.6C664.867 70.7333 638.067 70.3333 635.267 72.0666Z" fill="#8C8C8C"/>
</svg>
