<svg width="600" height="600" viewBox="0 0 600 600" fill="none" xmlns="http://www.w3.org/2000/svg">
<g clip-path="url(#clip0_317_9)">
<path d="M0 300V600H300H600V300V-3.12924e-05H300H0V300ZM99.5333 71.6666C100.133 72.2 100.733 73.6 101 74.8C101.2 76 101.867 78.9333 102.333 81.3333C103.867 88.4 105.2 95.3333 106.333 101.333C106.933 104.467 107.667 108.067 108 109.333C108.333 110.6 108.8 113.133 109 115C109.267 116.8 109.867 120.267 110.333 122.667C110.867 125.067 111.6 128.467 112 130.333C112.667 133.533 114.067 140.267 115.267 146.667C116.6 153.4 117.533 157.867 118.333 161C118.8 162.8 119.667 167.2 120.267 170.667C120.867 174.133 121.667 178.067 122 179.333C122.933 182.8 125.467 195.733 127.333 206C128.2 211 129.333 216.8 130.333 221.4C130.867 223.867 131.333 226.533 131.333 227.333C131.333 228.133 131.733 230.2 132.267 231.933C132.8 233.6 133.6 236.933 134.067 239.333C134.467 241.733 135.133 245 135.4 246.667C136.867 254.333 137.733 257.667 138.267 257.667C138.867 257.667 140 254.067 141.667 246.333C142.267 243.733 143 240.467 143.333 239C143.667 237.533 144.333 234.4 144.867 232C145.4 229.6 146.133 226.467 146.533 225C147.667 220.8 150.533 207.733 152.267 199C152.867 196.067 153.667 192.333 154.067 190.667C154.467 189 155.067 186.333 155.4 184.667C155.733 183 156.267 180.6 156.6 179.333C156.933 178.067 157.733 174.6 158.4 171.667C159.933 164.267 161.933 155.467 162.6 152.667C162.933 151.4 163.733 148.067 164.333 145.333C164.933 142.6 165.733 139.133 166.133 137.667C167.133 133.933 168.6 127 169.333 122.467C169.733 120.267 170.2 118.267 170.4 117.933C170.6 117.6 171 115.933 171.333 114.133C172.467 108.4 173.867 101.733 175.333 95.3333C178.333 82.4 178.8 80.2666 179.4 77.0666C179.667 75.3333 180.4 73.1333 181 72.2666L182 70.6666H208.867C223.6 70.6666 236 70.9333 236.4 71.2C237.733 72.1333 239.8 79.9333 241.333 90C241.6 91.6666 242.133 94.2 242.533 95.6666C243.2 98.3333 244.333 103.2 245.333 108.333C245.667 109.8 246.533 113.533 247.333 116.667C248.067 119.8 249 123.667 249.333 125.333C249.933 128.4 250.8 132.267 253.333 143.333C254.133 146.8 255.067 151 255.4 152.667C255.667 154.333 256.4 157.733 257 160.333C257.6 162.867 258.533 167.067 259 169.667C260.667 178.6 261.467 182.333 262.4 185.667C262.867 187.467 263.733 191.267 264.333 194C264.933 196.733 265.867 200.933 266.4 203.333C266.933 205.733 267.867 209.733 268.4 212.333C269 214.867 269.867 218.8 270.333 221C272.733 231.6 274.8 240.8 276.333 248.333C278.067 256.8 278.667 258.667 279.6 258.667C280.2 258.667 280.667 257.467 281 255.467C281.2 253.733 282.2 248.6 283.133 244C284.067 239.4 285.2 233.533 285.667 231C286.6 225.533 288.933 214.2 290.267 208C290.8 205.6 291.733 201.267 292.333 198.333C292.933 195.4 293.867 191.2 294.4 188.933C294.933 186.733 295.333 184.333 295.333 183.667C295.333 183 295.733 180.933 296.267 179.067C297.933 173 299.333 166.4 299.333 164.533C299.333 163.533 299.667 161.933 300 160.933C300.4 159.933 301 157.467 301.333 155.4C302.467 148.6 303.733 141.733 304.533 138.333C304.933 136.467 305.8 132.6 306.4 129.667C306.933 126.733 307.733 123 308.133 121.333C308.467 119.667 309.067 116.8 309.333 115C309.667 113.133 310.533 108.933 311.267 105.667C312.067 102.333 312.933 98.3333 313.267 96.6666C314.933 87.6 315.533 84.7333 316.333 82C316.8 80.3333 317.4 77.6 317.667 75.8666C318.4 70.2666 315.733 70.6666 355.067 70.6666C389.067 70.6666 393.4 70.9333 392.333 72.7333C392.067 73.0666 391.667 74.7333 391.333 76.5333C390.533 80.8 388.6 88.7333 386 98.3333C384.867 102.733 383.467 107.8 383 109.667C382.533 111.467 381.6 114.8 381 117C380.4 119.2 379.733 122.067 379.533 123.333C379.333 124.6 378.933 125.933 378.667 126.333C378.4 126.667 377.933 128.067 377.667 129.333C377.467 130.6 376.867 133 376.4 134.667C374.6 140.8 373.933 143.267 371.067 155C365.667 176.933 364.867 179.933 362.4 189C361.867 190.8 360.933 194.267 360.333 196.667C358.8 202.667 357.333 207.867 356.267 211C355.733 212.533 355.333 214.267 355.333 214.933C355.333 215.667 354.933 217.733 354.4 219.6C353.867 221.467 352.933 225.067 352.333 227.667C351.667 230.2 350.8 233.8 350.333 235.667C349.8 237.467 348.933 240.933 348.333 243.333C346.4 250.667 343.6 261.267 342.4 265.667C341.867 267.467 340.933 270.933 340.333 273.333C339.733 275.733 338.8 279.133 338.267 281C336.733 286.533 334.733 294.467 333 302C331.267 309.4 329.267 317.067 328.6 319C328.2 320.067 327.467 322.8 326.933 325C324.667 334.4 325.067 332.867 321.333 346.333C320.467 349.267 319.6 352.733 319.333 354C318.333 358.133 316.733 363.467 316.333 363.933C316.067 364.133 302.067 364.4 285.067 364.533C260.933 364.667 254.067 364.533 253.133 363.867C251.933 362.933 250.4 358.133 249.333 351.667C248.933 349.467 248.4 346.933 248.067 346C247.733 345.067 247 341.8 246.333 338.667C245.733 335.533 244.933 331.8 244.533 330.4C244.2 329 243.6 326.4 243.333 324.733C243 323.067 242.067 319.133 241.333 316C239.533 308.867 239.067 306.867 237.733 300.733C237.133 298.067 236.533 295.6 236.333 295.333C236.133 295.067 235.533 292.467 234.933 289.533C233.867 284.267 233.667 283.4 231.667 275C231.067 272.4 230 267.8 229.333 264.667C228.6 261.533 227.6 256.867 227 254.333C226.4 251.733 225.467 247.4 224.933 244.667C223.333 236.867 223.133 236 220.333 225C219.867 223.133 218.933 219.267 218.333 216.333C217.667 213.4 216.733 209.467 216.267 207.667C215.267 203.733 213.867 197.6 212.333 190.667C210.867 183.867 209.2 178 208.6 177.6C208.133 177.333 207.867 178.333 206.933 183.533C206.733 184.867 206.267 186.2 205.933 186.4C205.6 186.6 205.333 187.733 205.333 189C205.333 190.267 205.067 192 204.667 192.933C204.333 193.933 203.733 196.4 203.4 198.533C203 200.6 202.267 204.4 201.6 207C201 209.533 200.133 213.6 199.733 216C199.267 218.4 198.533 221.4 198.2 222.667C197.8 223.933 197 227.267 196.4 230C195.133 235.733 193.667 242.067 192.333 247.333C191.8 249.333 191 252.933 190.4 255.333C186.4 272.6 185.4 276.933 184.4 281.333C181.933 293 179.2 305.2 178.533 307.667C178.133 309.133 177.4 312.267 176.867 314.667C175.2 322.533 174.8 324.267 173.4 330C170.6 341.133 169.867 344.4 169.333 347C167.933 353.8 165.933 361.8 165.333 363.133L164.667 364.667H133.133C108.933 364.667 101.333 364.467 100.533 363.867C99.9333 363.4 98.6667 360.133 97.7333 356.6C96.2 350.867 95.5333 348 93.3333 338.333C93 336.867 92.0667 333.4 91.3333 330.667C90.5333 327.933 89.6667 324.467 89.3333 323C89 321.533 88.2667 318.667 87.7333 316.667C87.2 314.667 86.4 311.667 85.9333 310C85.5333 308.333 84.7333 305.467 84.2667 303.667C82 295.2 78.5333 281 77.3333 275.333C76.9333 273.667 76.4 271.4 76.0667 270.333C75.7333 269.2 75 265.933 74.3333 263C73.6667 260.067 72.9333 257.067 72.6 256.333C72.0667 254.933 70.2667 248.133 69.3333 244C69.0667 242.733 68.1333 239.267 67.3333 236.333C66.5333 233.4 65.6 229.933 65.3333 228.667C65.0667 227.4 64.4667 225 64.0667 223.333C63.6 221.667 62.8 218.533 62.2 216.333C61.6667 214.133 60.8 210.8 60.3333 209C59.8667 207.133 59 203.4 58.4 200.667C56.8667 193.733 54.0667 182.6 52.2667 176.333C49.8 167.467 49.2 164.933 43.9333 143.667C42.4667 137.8 40.8667 131.533 40.3333 129.733C39.8 128 39.3333 125.867 39.3333 125C39.3333 124.2 38.8667 122.2 38.3333 120.667C37.8 119.133 37.3333 117.133 37.3333 116.267C37.3333 115.4 36.9333 113.733 36.4 112.533C35.5333 110.533 34.6667 107.267 33.3333 101.333C33 100.067 32.1333 96.6 31.3333 93.6666C30.5333 90.7333 29.4667 86.5333 28.9333 84.3333C28.4 82.1333 27.6667 79.2666 27.3333 78C25.8667 72.4 25.8 71.8666 26.7333 71.2666C27.2667 70.9333 43.6 70.6666 63.1333 70.6666C93.6667 70.6666 98.7333 70.8 99.5333 71.6666ZM572.267 71.7333C573.2 72.6666 573.333 76.3333 573.2 104.533L573 136.333L528.667 136.667L484.333 137V159.333V181.667L526.8 182C550.133 182.2 569.4 182.533 569.6 182.733C570.133 183.267 570.2 246.533 569.667 247.333C569.4 247.733 553.4 248 528.133 248C505.533 248 486.333 248.2 485.533 248.4L484 248.8V273.067C484 291.667 484.2 297.4 484.867 297.8C485.267 298.067 505.333 298.467 529.333 298.667L573 299L573.133 330.667C573.267 349.933 573.067 362.733 572.667 363.333C572.133 364.2 562.667 364.333 495.2 364.533C452.933 364.6 417.333 364.533 416.2 364.333L414 363.933V217.667C414 78.9333 414.067 71.4 415.2 71.1333C415.8 70.9333 451.2 70.8 493.8 70.7333C563.6 70.6666 571.333 70.8 572.267 71.7333ZM68.0667 416.333C75.5333 417.4 82.0667 419.467 86.3333 422.133C100.733 431.267 109.533 444.8 111.4 460.667C112.733 472.467 112.8 474.333 112.067 479.867C109.2 500.867 102.4 513.2 88.6667 522.133C84.2 525.067 74.6667 528.4 68.3333 529.333C65.8 529.667 53 530 39.9333 530C18.8667 530 16.0667 529.867 15.7333 528.933C15.2 527.6 15.2 417.733 15.7333 416.4C16.0667 415.467 18.7333 415.333 38.6 415.333C54.8667 415.333 63 415.6 68.0667 416.333ZM186.333 416C186.867 416.933 186.867 439.733 186.333 440.667C186.067 441.067 180.267 441.333 170.067 441.333C158.4 441.333 153.933 441.533 153.133 442.2C152.133 442.933 152 444.067 152.133 450.667L152.333 458.333L168.467 458.533C183.733 458.667 184.667 458.733 185.333 460C185.733 460.8 185.933 465.667 185.867 472.8L185.667 484.333L169.467 484.667C156.067 484.933 153.2 485.2 152.667 486C151.667 487.533 151.8 502.867 152.8 503.867C153.4 504.467 158.133 504.667 170.133 504.667C182.867 504.667 186.667 504.867 186.667 505.467C186.733 505.933 186.733 511.533 186.733 517.933C186.733 526.8 186.533 529.667 185.867 530.067C184.4 531 126.4 530.8 125.467 529.867C124.867 529.267 124.667 515.8 124.667 473.267C124.667 442.533 124.867 417 125.067 416.4C125.4 415.467 128.733 415.333 155.667 415.333C175.467 415.333 186.067 415.6 186.333 416ZM237.267 417.067C238.067 418.867 240.467 427.333 241.333 431.333C241.6 432.6 242.133 434.4 242.467 435.333C242.867 436.267 243.667 438.8 244.267 441C244.867 443.2 246.267 447.867 247.333 451.333C249.4 458 251.533 465.067 254 473.333C254.8 476.067 255.867 479.667 256.4 481.267C256.933 482.933 257.333 484.933 257.333 485.733C257.333 486.6 257.667 487.467 258.133 487.733C259.133 488.4 261.333 485.6 261.333 483.6C261.333 482.733 261.733 480.867 262.267 479.533C262.733 478.133 263.733 475.067 264.333 472.667C266.6 464.4 270.733 449.933 274.333 438.333C274.733 436.867 275.667 433.867 276.267 431.667C276.933 429.467 277.867 426.667 278.4 425.467C278.933 424.267 279.333 422.667 279.333 421.933C279.333 421.2 279.933 419.4 280.667 418L282 415.333H299.6C315 415.333 317.267 415.467 317.6 416.4C317.8 417 318 442.533 318 473.267C318 515.8 317.8 529.267 317.2 529.867C316.667 530.4 312.933 530.667 304.933 530.667C295.4 530.667 293.267 530.467 292.4 529.6C291.533 528.733 291.4 526.933 291.667 517.467C291.867 511.333 292.133 494.467 292.333 480C292.667 450.2 292.2 446.6 289.267 457.133C288.533 459.6 287.533 463.133 286.933 465C286.4 466.8 285.667 469.4 285.333 470.667C283.467 478.067 282.733 480.533 282.133 482C281.8 482.933 281 485.6 280.333 488C279.733 490.4 278.8 493.8 278.267 495.667C277.733 497.467 276.533 501.867 275.6 505.333C273.333 513.867 272.067 518.6 271.333 521C271 522.067 270.333 524.467 269.8 526.2C269.333 528 268.467 529.733 267.933 530.067C266.8 530.8 251.333 530.867 250.2 530.133C249.8 529.867 248.933 528.133 248.4 526.333C247.8 524.467 247 522.067 246.667 520.933C246.333 519.867 245.733 517.6 245.4 515.933C244.8 513 244 510.067 241.333 501C240.533 498.4 239.667 495.4 239.4 494.333C238.2 490.133 236.667 484.867 235.333 480.333C234.533 477.733 233.667 474.6 233.333 473.333C233.067 472.067 232.067 468.267 231.067 465C229 457.8 227.533 452.333 227 449.667C226.6 447.867 226.533 447.8 225.867 449C225.333 449.867 225.267 462.133 225.533 489.733C225.8 518.333 225.667 529.4 225.133 529.933C224.2 530.867 202.133 530.933 200.667 530C199.8 529.467 199.667 522.333 199.467 473.667C199.4 435.667 199.533 417.533 200 416.667C200.667 415.4 201.467 415.333 218.6 415.333H236.467L237.267 417.067ZM394.133 416.467C394.8 417.067 395.333 417.933 395.333 418.333C395.333 418.8 396.2 421.2 397.267 423.733C399.533 429.2 403.067 438 404.4 441.467C406.133 446.067 407.533 449.667 408.4 451.8C408.933 452.933 409.333 454.2 409.333 454.6C409.333 455 409.733 456.267 410.267 457.467C410.8 458.667 411.733 461 412.333 462.667C413 464.333 413.867 466.533 414.333 467.667C415.4 470.067 419.067 479.267 420.467 483C421.067 484.467 421.733 486.267 422.067 487C423.467 490.333 426.8 499.2 428.333 503.333C428.8 504.6 431.133 510.733 433.6 516.867C436 523 438 528.467 438 528.933C438 529.467 437.533 530.067 436.933 530.267C435.467 530.867 409.133 530.733 408.333 530.133C407.4 529.467 404.267 521.6 403.533 518C403.333 517.067 402.533 515.667 401.8 514.8C400.467 513.333 400.267 513.333 382.267 513.333C367.467 513.333 364 513.533 363.4 514.267C362.6 515.2 360.2 521.133 359.533 523.667C359.067 525.667 357.067 529.6 356.333 530.133C355.2 531 328.4 530.8 327.533 529.933C326.8 529.2 327.067 527.467 328.667 523.667C330 520.467 330.467 519.4 333 513C334.333 509.667 335.867 506.067 336.333 505C336.8 503.867 337.733 501.467 338.4 499.667C339.6 496 344.333 483.8 347.467 476C348.6 473.267 350.333 468.867 351.333 466.333C352.333 463.733 354.133 459.267 355.333 456.333C356.533 453.4 357.867 449.933 358.333 448.667C360.133 443.667 365.6 429.533 366.4 427.667C366.867 426.533 367.933 424 368.667 422C371.4 414.933 370.6 415.333 382.467 415.333C391.267 415.333 393.067 415.533 394.133 416.467ZM475 473V530.333H461.333H447.667L447.467 473.667C447.4 442.467 447.467 416.6 447.667 416.133C447.867 415.467 451.067 415.333 461.467 415.467L475 415.667V473ZM513.467 416.467C514 417.133 517.533 422.733 521.267 429C530.067 443.733 529.4 442.6 531.533 445.867C532.533 447.467 533.333 448.867 533.333 449C533.333 449.133 534.533 451.067 536 453.267C537.467 455.467 539 458 539.333 458.8C539.733 459.667 540.6 461.2 541.333 462.333C542.067 463.4 542.933 464.933 543.267 465.667C543.6 466.4 545.2 469 546.8 471.4C548.4 473.867 550.8 477.667 552.2 479.933C556.533 487 556.8 486.267 556.2 468.8C555.933 460.467 555.667 445.133 555.667 434.667V415.667L568.933 415.467C579.133 415.333 582.333 415.533 582.8 416.133C583.067 416.6 583.333 442.2 583.333 473.067C583.333 515.733 583.133 529.267 582.533 529.867C582 530.4 578.4 530.667 570.6 530.667C561 530.667 559.267 530.533 558.067 529.467C556.6 528.267 556.067 527.467 546.333 511.667C543.2 506.533 538.533 499 535.933 495C533.4 490.933 529.333 484.333 526.867 480.333C520.2 469.333 516.6 464 515.867 464C515.467 464 515.267 475.467 515.4 496.733C515.533 524.467 515.4 529.533 514.6 530.067C513.467 530.8 490.667 530.867 489.467 530.133C488.8 529.667 488.667 518.067 488.667 473.067C488.667 442 488.8 416.267 489 415.933C489.267 415.6 494.533 415.333 500.933 415.333C511.067 415.333 512.6 415.467 513.467 416.467Z" fill="#8C8C8C"/>
<path d="M45.467 441.867C44.8004 442.333 44.667 449.067 44.8004 473.4L45.0004 504.333L52.0004 504.533C68.6004 505 78.267 498.867 82.267 485.333C83.0004 482.933 83.3337 479.133 83.3337 473.533C83.3337 450.867 74.4004 441.333 53.267 441.333C49.467 441.333 45.9337 441.6 45.467 441.867Z" fill="#8C8C8C"/>
<path d="M381.733 454.667C381.6 455.2 380.933 457.467 380.266 459.667C379.666 461.867 378.266 466.333 377.266 469.667C376.2 472.933 374.933 477.133 374.4 479C373.8 480.8 372.866 483.933 372.266 485.933C371.333 488.933 371.333 489.6 372.066 490.067C372.6 490.4 377.4 490.667 382.733 490.667C392.733 490.667 394.466 490.267 393.733 487.933C393.066 485.667 389.2 473 387 466.133C385.733 462 384.666 458.2 384.666 457.8C384.666 457.333 384.066 456.267 383.333 455.333C382.4 454.067 382 453.867 381.733 454.667Z" fill="#8C8C8C"/>
</g>
<defs>
<clipPath id="clip0_317_9">
<rect width="600" height="600" fill="white"/>
</clipPath>
</defs>
</svg>
