<svg width="346" height="346" viewBox="0 0 346 346" fill="none" xmlns="http://www.w3.org/2000/svg">
<g clip-path="url(#clip0_548_2)">
<path d="M173 173C190.108 173 206.832 167.927 221.057 158.422C235.282 148.917 246.369 135.408 252.916 119.602C259.463 103.796 261.176 86.4038 257.838 69.6245C254.5 52.8451 246.262 37.4323 234.165 25.3351C222.067 13.2378 206.655 4.99949 189.875 1.66187C173.096 -1.67575 155.704 0.0372351 139.898 6.58421C124.092 13.1312 110.583 24.2181 101.078 38.443C91.5731 52.6678 86.5 69.3917 86.5 86.4998C86.5229 109.434 95.6436 131.422 111.861 147.639C128.077 163.856 150.066 172.977 173 173ZM173 28.8331C184.405 28.8331 195.555 32.2152 205.038 38.5517C214.521 44.8882 221.912 53.8945 226.277 64.4317C230.642 74.9689 231.784 86.5638 229.559 97.75C227.334 108.936 221.841 119.211 213.776 127.276C205.712 135.341 195.436 140.833 184.25 143.058C173.064 145.283 161.469 144.142 150.932 139.777C140.395 135.412 131.388 128.021 125.052 118.538C118.715 109.054 115.333 97.9052 115.333 86.4998C115.333 71.2056 121.409 56.5379 132.224 45.7233C143.038 34.9087 157.706 28.8331 173 28.8331Z" fill="black"/>
<path d="M173 201.833C138.6 201.871 105.62 215.554 81.295 239.878C56.9705 264.203 43.2882 297.183 43.25 331.583C43.25 335.407 44.7689 339.074 47.4725 341.777C50.1762 344.481 53.8431 346 57.6667 346C61.4902 346 65.1571 344.481 67.8608 341.777C70.5644 339.074 72.0833 335.407 72.0833 331.583C72.0833 304.818 82.7156 279.15 101.641 260.224C120.567 241.299 146.235 230.667 173 230.667C199.765 230.667 225.433 241.299 244.359 260.224C263.284 279.15 273.917 304.818 273.917 331.583C273.917 335.407 275.436 339.074 278.139 341.777C280.843 344.481 284.51 346 288.333 346C292.157 346 295.824 344.481 298.527 341.777C301.231 339.074 302.75 335.407 302.75 331.583C302.712 297.183 289.03 264.203 264.705 239.878C240.38 215.554 207.4 201.871 173 201.833Z" fill="black"/>
</g>
<defs>
<clipPath id="clip0_548_2">
<rect width="346" height="346" fill="white"/>
</clipPath>
</defs>
</svg>
